<?xml version="1.0" encoding="UTF-8" standalone="no"?>
<!-- Created with Inkscape (http://www.inkscape.org/) -->

<svg
   xmlns:svg="http://www.w3.org/2000/svg"
   xmlns="http://www.w3.org/2000/svg"
   version="1.1"
   width="30.590418"
   height="31.786249"
   id="svg2855"
   xml:space="preserve"><defs
     id="defs2859"><linearGradient
       id="linearGradient6594"><stop
         id="stop6596"
         style="stop-color:#9c387c;stop-opacity:1"
         offset="0" /><stop
         id="stop6602"
         style="stop-color:#c07b30;stop-opacity:1"
         offset="0.5" /><stop
         id="stop6598"
         style="stop-color:#78972f;stop-opacity:1"
         offset="1" /></linearGradient><clipPath
       id="clipPath2871"><path
         d="M 0,792 612,792 612,0 0,0 0,792 z"
         id="path2873" /></clipPath></defs><g
     transform="matrix(1.25,0,0,-1.25,-297.45004,686.45946)"
     id="g2865"><g
       id="g6682"
       style="opacity:0.75"><path
         d="m 10.25,2.96875 c -3.36448,3.6515473 -3.0367623,10.370036 0,13.84375 l 0,-13.84375 z m 0,17.28125 c -3.6963991,0.978101 -4.4399087,1.378984 -7.1875,3.375 -1.3542375,0.984112 -2.21875,0.837413 -2.21875,2.53125 l -0.34375,5.125 9.75,0 0,-11.03125 z"
         transform="matrix(0.8,0,0,-0.8,237.96003,549.16757)"
         id="rect6612"
         style="fill:#9c387c;fill-opacity:1;fill-rule:nonzero;stroke:none" /><path
         d="m 20.34375,2.65625 0,14.46875 c 3.413054,-3.46215 3.814797,-10.7913374 0,-14.46875 z m 0,17.5 0,11.125 9.75,0 -0.34375,-5.125 c 0,-1.693838 -0.864512,-1.547138 -2.21875,-2.53125 -2.835636,-2.059977 -3.193737,-2.41578 -7.1875,-3.46875 z"
         transform="matrix(0.8,0,0,-0.8,237.96003,549.16757)"
         id="rect6614"
         style="fill:#78972f;fill-opacity:1;fill-rule:nonzero;stroke:none" /><path
         d="m 15.46875,0.5 c -2.321967,0.22013128 -4.079068,1.2005773 -5.3125,2.59375 l 0,13.59375 c 0.313616,0.373413 0.658435,0.704146 1.03125,1 0.6221,0.492775 0.64025,0.417087 0.625,1.21875 -0.01376,0.795913 0.172187,0.87825 -0.65625,1.09375 -0.413809,0.106856 -0.647785,0.187698 -1,0.28125 l 0,11 10.28125,0 0,-11.09375 C 20.19055,20.122106 20.058853,20.071684 19.78125,20 18.952813,19.7845 19.13875,19.702163 19.125,18.90625 c -0.01529,-0.801663 -0.02835,-0.725975 0.59375,-1.21875 0.253551,-0.20121 0.49241,-0.418079 0.71875,-0.65625 l 0,-14.28125 C 19.227902,1.5413563 17.594633,0.70157552 15.46875,0.5 z"
         transform="matrix(0.8,0,0,-0.8,237.96003,549.16757)"
         id="rect6616"
         style="fill:#c07b30;fill-opacity:1;fill-rule:nonzero;stroke:none" /><path
         d="m 262.03237,524.13857 -23.67234,0 0.26667,4.11613 c 0,1.35507 0.69464,1.2363 1.77803,2.02359 2.39055,1.73664 2.75987,1.92168 6.48082,2.88252 0.66275,0.1724 0.51357,0.23906 0.52458,0.87579 0.0122,0.64133 0,0.58156 -0.49768,0.97578 -4.13058,3.27789 -3.80776,13.07019 3.41769,13.75519 7.22424,-0.685 7.54706,-10.4773 3.41648,-13.75519 -0.49768,-0.39422 -0.50991,-0.33445 -0.49768,-0.97578 0.011,-0.63673 -0.13817,-0.70339 0.52458,-0.87579 3.72094,-0.96084 3.8236,-1.14588 6.21415,-2.88252 1.08339,-0.78729 1.77803,-0.66852 1.77803,-2.02359 l 0.26667,-4.11613 z"
         id="path2991"
         style="fill:none;stroke:#ffffff;stroke-width:0.80000001;stroke-miterlimit:4;stroke-opacity:1;stroke-dasharray:none" /></g></g></svg>