<?xml version="1.0" encoding="UTF-8" standalone="no"?>
<!-- Created with Inkscape (http://www.inkscape.org/) -->

<svg
   xmlns:svg="http://www.w3.org/2000/svg"
   xmlns="http://www.w3.org/2000/svg"
   version="1.1"
   width="347.61905"
   height="416.9603"
   id="svg2">
  <title
     id="title2991">Foafpress Person</title>
  <defs
     id="defs6" />
  <g
     transform="translate(-280.95236,-604.05398)"
     id="g2965">
    <path
       d="m 569.84127,919.84125 a 122.22222,145.2381 0 1 1 -244.44444,0 122.22222,145.2381 0 1 1 244.44444,0 z"
       transform="matrix(1.1868081,0,0,0.75465217,-76.74021,212.18897)"
       id="path2858"
       style="fill:#b3b3b3;fill-opacity:1;stroke:#000000;stroke-width:3;stroke-linecap:round;stroke-miterlimit:4;stroke-dasharray:none;stroke-dashoffset:0" />
    <path
       d="m 358.72148,1019.5143 a 122.22222,145.2381 0 1 1 178.17303,-0.4781"
       transform="translate(6.8788147,0)"
       id="path2852"
       style="fill:#ececec;fill-opacity:1;stroke:#000000;stroke-width:3;stroke-linecap:round;stroke-miterlimit:4;stroke-dasharray:none;stroke-dashoffset:0" />
    <path
       d="m 563.49205,739.68256 a 130.95238,117.46032 0 1 1 -261.90475,0 130.95238,117.46032 0 1 1 261.90475,0 z"
       transform="translate(21.95803,0)"
       id="path2854"
       style="fill:#ffe6d5;fill-opacity:1;stroke:#000000;stroke-width:3;stroke-linecap:round;stroke-miterlimit:4;stroke-dasharray:none;stroke-dashoffset:0" />
    <path
       d="m 594.60764,779.36095 a 290.4762,165.07936 0 0 1 -288.69242,-2.413"
       transform="translate(4.2362751,0)"
       id="path2856"
       style="fill:none;stroke:#000000;stroke-width:3;stroke-linecap:round;stroke-miterlimit:4;stroke-dasharray:none;stroke-dashoffset:0" />
    <path
       d="m 160.31746,258.73016 a 9.5238094,9.5238094 0 1 1 -19.04761,0 9.5238094,9.5238094 0 1 1 19.04761,0 z"
       transform="translate(255.55556,450.79365)"
       id="path2860"
       style="fill:#000000;stroke:#000000;stroke-width:3;stroke-linecap:round;stroke-miterlimit:4;stroke-dasharray:none;stroke-dashoffset:0" />
    <path
       d="m 160.31746,258.73016 a 9.5238094,9.5238094 0 1 1 -19.04761,0 9.5238094,9.5238094 0 1 1 19.04761,0 z"
       transform="translate(346.03175,452.38095)"
       id="path2862"
       style="fill:#000000;stroke:#000000;stroke-width:3;stroke-linecap:round;stroke-miterlimit:4;stroke-dasharray:none;stroke-dashoffset:0" />
    <g
       transform="matrix(0.38048098,0,0,0.38048098,418.95127,831.50936)"
       id="g3174">
      <path
         d="m 101.07,118.181 c 49.262,22.201 60.006,-18.737 60.006,-18.737 0,0 -9.361,51.346 -52.557,72.32 -8.798,4.277 -14.265,6.57 -14.265,6.57 L 23.492,143.843 94.254,114.824 c 10e-4,0 -1.707,-0.482 6.816,3.357 z"
         id="path3176"
         style="fill:#86ba0c" />
      <polygon
         points="86.01,192.747 86.01,268.546 20.078,232.849 20.078,159.232 "
         id="polygon3178"
         style="fill:#ef7c00" />
      <polygon
         points="100.841,192.747 100.841,268.546 166.772,232.849 166.772,159.232 "
         id="polygon3180"
         style="fill:#bd1789" />
    </g>
  </g>
</svg>
